<svg width="39" height="36" viewBox="0 0 39 36" fill="none" xmlns="http://www.w3.org/2000/svg">
<path d="M34.7861 6.3954L39 10.2852C36.3857 11.0541 34.0014 12.3748 32.0366 14.1426C27.8577 18 30.6423 20.5722 26.4635 24.4278C22.2846 28.2834 19.5 25.7148 15.3212 29.5722C13.4753 31.4344 12.0542 33.6204 11.1423 36L6.9342 32.1138C7.15192 31.9241 7.31824 31.6898 7.41975 31.4298C8.2357 29.3142 9.49461 27.3674 11.1248 25.7004C12.3382 24.5337 13.9577 23.7984 15.6994 23.6232C18.1969 23.3073 20.5084 22.2303 22.267 20.5632C24.0731 18.9399 25.2398 16.8061 25.5821 14.5008C25.7719 12.893 26.5685 11.3981 27.8324 10.278C29.565 8.7302 31.657 7.56735 33.9495 6.8778C34.2696 6.78805 34.5583 6.6216 34.7861 6.3954ZM8.37135 23.1552C10.13 21.4881 12.4415 20.4111 14.939 20.0952C16.681 19.9197 18.3006 19.1836 19.5137 18.0162C20.7784 16.8965 21.5757 15.4015 21.7659 13.7934C22.1081 11.4881 23.2749 9.35432 25.0809 7.731C27.0267 5.97662 29.3461 4.61462 31.8923 3.7314L27.8577 0C25.2427 0.768606 22.8578 2.08936 20.8923 3.8574C16.7134 7.7148 19.5 10.2852 15.3212 14.1426C11.1423 18 8.3577 15.4278 4.17885 19.2852C2.3324 21.1477 0.9112 23.3344 0 25.7148L4.0599 29.4606C5.05182 27.1259 6.51487 24.9862 8.37135 23.1552Z" fill="#DFB004"/>
</svg>
