<svg width="39" height="36" viewBox="0 0 39 36" fill="none" xmlns="http://www.w3.org/2000/svg">
<path d="M38.5456 15.0317C38.2534 13.6152 37.8271 12.2796 37.2992 11.0764C35.6999 7.42441 33.2139 4.72382 30.1885 2.85285C29.9699 2.72147 29.7451 2.58912 29.5209 2.46858C28.3535 1.81069 27.1132 1.28419 25.8165 0.890039C23.8972 0.303269 21.8545 0 19.7274 0H19.3569C18.0996 0.0197695 16.8708 0.152115 15.681 0.374385C13.582 0.778424 11.6006 1.48669 9.79362 2.49823C8.74953 3.06523 7.76196 3.74289 6.84713 4.50154C6.55555 4.74454 6.26891 4.99743 5.9883 5.2602C4.22628 6.92853 2.7503 8.98236 1.68976 11.44C0.628683 13.8985 -0.0054491 16.8217 3.52861e-05 19.9678V20.0685C0.00605287 21.6067 0.162815 23.0834 0.460419 24.4178C0.982197 26.7858 1.93092 28.707 3.11532 30.1937C4.89987 32.4291 7.2286 33.8259 9.92288 34.7258C12.6222 35.6256 15.6979 36 18.9639 36C19.1662 36 19.3738 36 19.5755 35.9901C24.683 35.9091 29.3301 34.9983 32.8603 32.6414C34.6278 31.4481 36.1318 29.8804 37.2433 27.726C37.793 26.6433 38.2424 25.4096 38.5455 24.0434C38.8487 22.6782 39.0054 21.1917 38.9999 19.624V19.5223C38.9945 17.9646 38.8372 16.4473 38.5456 15.0317ZM36.4744 19.624C36.4744 20.6553 36.379 21.5453 36.1992 22.3544C35.8852 23.7709 35.3015 25.0353 34.3867 26.1783C33.0286 27.8981 30.9405 29.2532 28.3815 30.1127C25.8225 30.9829 22.7972 31.3978 19.5591 31.4383C19.3569 31.4482 19.1606 31.4482 18.9639 31.4482C14.1485 31.4581 9.84397 30.579 6.89748 28.5856C5.4215 27.6047 4.30459 26.36 3.59756 24.9642C3.24412 24.2668 2.9859 23.5279 2.80613 22.7288C2.6269 21.9296 2.53153 21.0494 2.52552 20.0379V19.9678C2.52552 17.9142 2.90752 16.0432 3.68196 14.2325C4.60219 12.0781 6.11763 10.0846 8.07647 8.48634C8.79447 11.0053 9.3781 13.4028 9.83856 15.3853C10.6859 18.9969 12.4595 17.7422 12.0106 14.354C11.7579 12.3912 11.4773 9.85249 10.8152 6.68662C12.6113 5.73522 14.626 5.07733 16.7865 4.76431C17.55 8.13268 18.1112 11.3491 18.5376 13.9392C19.2057 17.9646 21.2314 17.0242 20.9847 13.3218C20.8384 11.107 20.7096 8.24444 20.1708 4.56181C22.4717 4.60231 24.6551 5.04781 26.625 5.80647C27.0404 8.72947 27.332 11.4608 27.5567 13.7368C27.9715 17.9143 30.0202 17.3582 29.9979 13.5748C29.9924 11.9261 30.0148 9.94351 29.9025 7.50555C30.604 7.9807 31.2606 8.49732 31.8613 9.05347C33.3707 10.4493 34.5381 12.1077 35.307 13.8889C36.0815 15.6688 36.4635 17.5092 36.4744 19.553L36.4744 19.624Z" fill="#DFB004"/>
</svg>
