<svg width="39" height="36" viewBox="0 0 39 36" fill="none" xmlns="http://www.w3.org/2000/svg">
<path d="M8.13818 9.57623C6.48155 9.57623 5.13374 10.8202 5.13374 12.3496C5.13374 13.8786 6.48142 15.1228 8.13818 15.1228C9.79493 15.1228 11.1426 13.8787 11.1426 12.3496C11.1426 10.8202 9.79493 9.57623 8.13818 9.57623ZM8.13818 13.1693C7.6483 13.1693 7.24982 12.8015 7.24982 12.3494C7.24982 11.8972 7.6483 11.5294 8.13818 11.5294C8.62805 11.5294 9.02653 11.8972 9.02653 12.3494C9.02653 12.8015 8.62805 13.1693 8.13818 13.1693ZM10.5219 25.7518C10.5219 26.2911 10.0482 26.7284 9.4639 26.7284H9.288C8.7037 26.7284 8.22996 26.2911 8.22996 25.7518C8.22996 25.2124 8.7037 24.7751 9.288 24.7751H9.4639C10.0482 24.7751 10.5219 25.2124 10.5219 25.7518ZM37.942 14.1113C38.5263 14.1113 39 13.674 39 13.1347V0.977293C39 0.437937 38.5263 0.000640869 37.942 0.000640869H20.5278C19.9435 0.000640869 19.4698 0.437937 19.4698 0.977293C19.4698 3.13203 17.5706 4.88512 15.2359 4.88512C12.9012 4.88512 11.002 3.13203 11.002 0.977293C11.002 0.437937 10.5283 0.000640869 9.94399 0.000640869H1.05804C0.473737 0.000640869 0 0.437937 0 0.977293V31.0396C0 31.579 0.473737 32.0163 1.05804 32.0163C2.85433 32.0163 4.31574 33.3653 4.31574 35.0235C4.31574 35.5629 4.78948 36.0002 5.37378 36.0002H37.942C38.5263 36.0002 39 35.5629 39 35.0235V18.9745C39 18.4352 38.5263 17.9979 37.942 17.9979C36.7808 17.9979 35.8359 17.1261 35.8359 16.0546C35.8359 14.9831 36.7806 14.1113 37.942 14.1113ZM36.8839 19.8273V34.0468H6.32721C5.90307 32.0935 4.23203 30.551 2.11608 30.1595V1.95394H8.97416C9.47937 4.72251 12.0951 6.83843 15.2359 6.83843C18.3767 6.83843 20.9923 4.72251 21.4976 1.95394H36.8839V12.2819C35.0662 12.7164 33.7199 14.243 33.7199 16.0546C33.7199 17.8662 35.0662 19.3929 36.8839 19.8273ZM21.8578 18.0005C21.8578 17.4611 22.3315 17.0238 22.9158 17.0238H23.0916C23.6759 17.0238 24.1496 17.4611 24.1496 18.0005C24.1496 18.5398 23.6759 18.9771 23.0916 18.9771H22.9158C22.3315 18.9771 21.8578 18.5398 21.8578 18.0005ZM25.6471 22.8941C23.3195 22.8941 21.4258 24.6421 21.4258 26.7907C21.4258 28.9394 23.3195 30.6874 25.6471 30.6874C27.9748 30.6874 29.8685 28.9394 29.8685 26.7907C29.8685 24.6422 27.9747 22.8941 25.6471 22.8941ZM25.6471 28.7341C24.4863 28.7341 23.5419 27.8622 23.5419 26.7907C23.5419 25.7192 24.4863 24.8474 25.6471 24.8474C26.8079 24.8474 27.7524 25.7192 27.7524 26.7907C27.7524 27.8622 26.8079 28.7341 25.6471 28.7341ZM31.0215 8.17522C31.0215 8.71457 30.5477 9.15187 29.9634 9.15187H29.7875C29.2032 9.15187 28.7295 8.71457 28.7295 8.17522C28.7295 7.63586 29.2032 7.19857 29.7875 7.19857H29.9634C30.5477 7.19857 31.0215 7.63586 31.0215 8.17522Z" fill="#DFB004" stroke="#DFB004" stroke-width="2.71292"/>
</svg>
