<svg width="39" height="36" viewBox="0 0 39 36" fill="none" xmlns="http://www.w3.org/2000/svg">
<path d="M38.9556 24.7335L35.2931 15.1061C35.1547 14.7503 34.7369 14.5046 34.2659 14.5046H32.9866V2.7C32.9858 1.20769 31.4577 0.000632813 29.5713 0H9.33434C7.44794 0.000632813 5.91988 1.20769 5.91988 2.7V14.7843H5.08583C4.64142 14.7843 4.24004 15.004 4.08434 15.3344L0.0690612 23.8024C-0.0600481 24.0728 -0.00607448 24.3741 0.213731 24.6068C0.427313 24.8357 0.775517 24.9626 1.13937 24.9452L5.08592 24.7336V33.8364C5.08592 35.0305 6.31192 36 7.81651 36H31.0909C32.5947 36 33.8215 35.0305 33.8215 33.8364V25.4704L37.8102 25.8218C38.163 25.851 38.5222 25.737 38.7522 25.5212C38.9821 25.3053 39.0573 25.0045 38.9556 24.7335ZM24.4271 1.64264H29.5714C29.9439 1.64327 30.2725 1.75964 30.5173 1.95258C30.7615 2.14622 30.9086 2.40553 30.9093 2.7V7.05867H24.4271V1.64264ZM24.4271 8.29048H30.9093V13.7938H24.4271V8.29048ZM24.4271 15.0256H30.6738L30.0995 15.2075L24.5804 16.9523L24.427 17.0006V15.0256H24.4271ZM16.0709 1.64264H22.8685V7.05867H16.0709V1.64264ZM16.0709 8.29048H22.8685V13.7938H16.0709V8.29048ZM16.0709 15.0256H22.8685V17.493L18.0802 19.0095L16.071 18.165V15.0256H16.0709ZM7.99719 2.7C7.99719 2.40553 8.14506 2.14629 8.38843 1.95258C8.63402 1.75964 8.96196 1.64327 9.33434 1.64264H14.5131V7.05867H7.99719V2.7ZM7.99719 8.29048H14.5131V13.7938H7.99719V8.29048ZM14.5131 15.0256V17.5115L14.3589 17.4473L9.03149 15.2075L8.59881 15.0256H14.5131ZM18.0535 22.346L15.8635 22.4641L5.08592 23.0401L2.65489 23.167L5.82999 16.4777H7.49489L16.2759 20.1694L17.6733 20.7534L17.9573 20.8723L18.289 21.012L20.5964 21.9816L21.0783 22.1845L18.0535 22.346ZM33.8215 23.7597L28.1153 23.2549L25.4113 22.0912C25.4067 22.0887 25.4043 22.0856 25.3996 22.0837L25.1586 21.9817L20.5596 20.0507L32.7401 16.1981H33.4678L36.4339 23.993L33.8215 23.7597Z" fill="#DFB004"/>
</svg>
