<svg width="39" height="36" viewBox="0 0 39 36" fill="none" xmlns="http://www.w3.org/2000/svg">
<path d="M37.3749 26.094C36.1726 23.3214 34.5234 20.6042 32.852 18.5647C34.6137 13.0818 34.4608 1.94562 30.3214 0.237935C30.2467 0.205145 30.1791 0.182411 30.1241 0.164049C27.3543 -0.751436 23.1412 2.37582 20.8765 4.32089C18.4155 6.43429 16.2017 8.88826 14.7376 11.0664C13.3033 9.2695 11.7262 8.0812 10.1739 8.0812C5.21357 8.0812 0 20.2142 0 25.5672C0 28.8344 0.921734 31.4178 2.73796 33.2444C4.30596 34.8209 6.46828 35.7469 9.03975 35.955C9.13157 35.9834 9.22844 36 9.32732 36C9.38534 36 9.44336 35.9934 9.50137 35.9825C9.72336 35.993 9.94685 36 10.1739 36C13.2458 36 15.8168 35.0469 17.6103 33.2439C18.2838 32.5663 18.8337 31.7841 19.26 30.9023C21.5656 32.2707 24.5397 33.6046 27.5693 34.5909C29.4859 35.2152 32.3666 35.9991 34.7373 35.9991C35.9839 35.9991 37.0848 35.7779 37.835 35.2074C37.8799 35.1733 37.9278 35.1427 37.9697 35.1064C40.0649 33.2911 38.4969 28.6805 37.3749 26.094ZM28.1651 33.2164C25.1159 32.2235 22.0606 30.8276 19.8236 29.4486C20.0794 28.6 20.2408 27.6771 20.3094 26.6843C20.3266 26.4399 20.3362 26.1907 20.3417 25.938C20.3442 25.8147 20.3483 25.6927 20.3483 25.5672C20.3483 25.5607 20.3483 25.5532 20.3483 25.5462C20.3478 25.4269 20.3447 25.3036 20.3392 25.1781C20.3331 25.04 20.3251 24.8992 20.3135 24.754C20.2928 24.5022 20.263 24.239 20.2252 23.9675C20.207 23.8346 20.1868 23.7 20.1641 23.5627C20.0895 23.1071 19.9921 22.6297 19.8755 22.1361C19.476 20.4446 18.8413 18.566 18.0427 16.746C17.8883 16.394 17.7279 16.0447 17.5619 15.6989C17.5412 15.656 17.521 15.6132 17.4998 15.5703C17.5558 15.5341 17.6118 15.4973 17.6683 15.4628C18.0825 15.2083 18.5093 14.9932 18.9457 14.8153C19.932 14.4131 20.9693 14.2054 22.0338 14.2054C22.2109 14.2054 22.3905 14.2111 22.5696 14.2225C22.9056 14.2439 23.2416 14.2876 23.5786 14.3484C23.674 14.3654 23.7693 14.3829 23.8652 14.403C24.0781 14.4485 24.2915 14.5031 24.5049 14.5639C24.8106 14.6509 25.1164 14.7537 25.4221 14.8721C26.1728 15.1633 26.9245 15.5489 27.6752 16.029C27.9103 16.1789 28.1454 16.3363 28.38 16.5051C28.7231 16.7512 29.0661 17.0192 29.4082 17.3047C29.5046 17.3847 29.6004 17.4643 29.6968 17.5473C30.113 17.908 30.5449 18.3465 30.9813 18.8414C31.1795 19.0661 31.3788 19.304 31.5781 19.5519C31.7683 19.7884 31.959 20.0328 32.1487 20.2881C33.4997 22.1055 34.813 24.361 35.7877 26.6112C36.3275 27.8559 36.7019 28.9555 36.9445 29.909C35.4391 27.2832 33.2768 24.6216 32.861 24.1179C32.6042 23.8066 32.4352 23.3616 32.2556 22.8899C32.0649 22.388 31.8672 21.8716 31.5302 21.4336C31.4701 21.3553 31.4071 21.2792 31.3374 21.2067C31.2083 21.0729 31.0635 20.9609 30.9116 20.8639C30.675 20.7122 30.4202 20.599 30.172 20.5063C30.0131 20.4468 29.8567 20.3948 29.7104 20.3471C29.447 20.2606 29.1766 20.1723 29.0308 20.08C28.9748 20.0039 28.8881 19.8907 28.7725 19.7495C28.6202 19.5632 28.4168 19.3289 28.1651 19.0675C27.9789 18.8742 27.766 18.6661 27.5284 18.4523C26.7298 17.7353 25.6466 16.9558 24.3202 16.4482C24.0569 16.3477 23.7845 16.2572 23.5029 16.1802C23.3788 16.1466 23.2522 16.116 23.1246 16.088C22.9591 16.0513 22.7906 16.0198 22.6196 15.9931C22.4606 15.9682 22.3007 15.9463 22.1367 15.9315C21.6741 15.8869 21.2534 16.1789 21.2029 16.5829C21.1605 16.9186 21.3886 17.2229 21.7336 17.3414C21.8038 17.3659 21.8764 17.3847 21.9546 17.3921C22.4359 17.4372 22.8935 17.5412 23.3264 17.6837C24.8843 18.1979 26.1067 19.2332 26.8488 19.9996C27.1157 20.275 27.3195 20.5141 27.4558 20.6833C27.5804 20.8381 27.6485 20.9338 27.652 20.9391C27.6878 20.9894 27.7307 21.0375 27.7786 21.0794C27.8755 21.1638 27.9809 21.2368 28.0909 21.302C28.4138 21.493 28.7791 21.6128 29.1115 21.7217C29.1892 21.747 29.2654 21.7724 29.3401 21.7977C29.6362 21.8983 29.8971 22.0037 30.0348 22.1471C30.0439 22.1562 30.0519 22.1676 30.0605 22.1772C30.2305 22.3665 30.3642 22.6402 30.4899 22.9493C30.5423 23.0783 30.5938 23.2125 30.6458 23.3498C30.8571 23.905 31.0746 24.4795 31.4822 24.9731C35.1591 29.4268 37.0273 33.2601 36.7589 34.0584C35.5253 34.3933 28.7972 31.4803 23.5257 27.6465C23.1664 27.3855 22.6312 27.4271 22.3315 27.737C22.0303 28.0479 22.0772 28.5113 22.4359 28.7719C24.5094 30.2802 28.5167 32.7337 32.0004 34.2246C30.893 34.0143 29.614 33.6877 28.1651 33.2164ZM17.8464 29.9999C17.4701 30.8791 16.9635 31.6438 16.3253 32.2852C15.2144 33.4026 13.7165 34.1183 11.9356 34.3977C12.7913 33.5666 13.5657 32.3914 13.5657 30.8577V29.878V28.6534C13.5657 28.2477 13.1868 27.9189 12.7181 27.9189C12.2494 27.9189 11.87 28.2477 11.87 28.6534V30.3064V30.6942V30.8573C11.87 32.3228 10.8227 33.3777 9.98166 33.9889C9.66332 34.2197 9.37525 34.3876 9.18404 34.4899C7.06208 34.3133 5.29127 33.5605 4.02344 32.2852C2.47915 30.7327 1.69615 28.4724 1.69615 25.5672C1.69615 21.7781 4.12232 15.9306 6.63224 12.4483C5.56925 15.2127 4.93609 18.3763 4.82006 18.9822C4.74842 19.3599 4.50373 19.7783 4.24542 20.2217C3.92153 20.7778 3.58704 21.3527 3.52196 21.9748C3.45738 22.593 3.74193 23.1399 3.97148 23.5793C4.0865 23.7997 4.20405 24.0266 4.23332 24.1813C3.62236 26.4556 3.67029 31.065 8.09985 32.9847C8.22144 33.0371 8.35059 33.0621 8.47823 33.0621C8.78951 33.0621 9.08869 32.9134 9.23752 32.6559C9.36718 32.4307 9.35053 32.1754 9.21986 31.9704C9.14015 31.8453 9.01705 31.7387 8.85813 31.6696C4.44924 29.7595 5.84824 24.6391 5.9103 24.4218C5.92694 24.3645 5.93552 24.3042 5.93552 24.2452C5.93552 23.7782 5.71253 23.3511 5.51729 22.9747C5.34676 22.6485 5.18582 22.3403 5.21105 22.1073C5.24637 21.7641 5.49559 21.3365 5.75995 20.8836C6.06367 20.3616 6.37848 19.8216 6.493 19.2227C7.52825 13.8198 9.33539 9.96507 10.1759 9.56504C10.86 9.87938 11.9195 12.1366 12.8074 15.0208C12.9683 15.5432 13.1232 16.0867 13.2695 16.6423C13.327 16.8609 13.3841 17.0813 13.4385 17.3038C13.5329 17.6864 13.6222 18.0724 13.7059 18.4615C13.8174 18.9787 13.9178 19.4994 14.0066 20.0179C14.1438 20.8154 14.2513 21.6062 14.3214 22.3727C14.3638 22.8361 14.3936 23.2912 14.4062 23.7315C14.4067 23.7507 14.4067 23.7695 14.4072 23.7887C14.4112 23.9426 14.4143 24.0952 14.4143 24.2452C14.4143 24.4401 14.5036 24.6268 14.6625 24.7645L15.2447 25.2691L15.2618 25.2844V25.2931V26.6073V27.7974V28.6534C15.2618 28.7828 15.3042 28.903 15.3718 29.0088C15.5166 29.234 15.7906 29.3883 16.1094 29.3883C16.3526 29.3883 16.5705 29.2982 16.7249 29.1562C16.8677 29.0246 16.957 28.8488 16.957 28.6534V28.3233V27.2509V25.5559V24.9801C16.957 24.8585 16.9186 24.7418 16.8535 24.636C16.8147 24.5726 16.7683 24.5123 16.7083 24.4607L16.1054 23.9378C16.1008 23.6838 16.0882 23.4123 16.0695 23.1268C15.9686 21.5748 15.6786 19.5995 15.2371 17.5941C15.1665 17.2728 15.0918 16.951 15.0136 16.6301C14.9405 16.3293 14.8638 16.0298 14.7846 15.7317C14.7185 15.4855 14.6504 15.2407 14.5802 14.9976C14.4551 14.5639 14.3234 14.1377 14.1852 13.7223C14.0601 13.3463 13.9309 12.98 13.7957 12.6254C13.7776 12.5769 13.7589 12.5288 13.7402 12.4807C13.7655 12.5161 13.7912 12.5511 13.8164 12.5869C13.993 12.8366 14.1686 13.0976 14.3436 13.3682C14.5222 13.6454 14.6993 13.9326 14.8744 14.229C15.056 14.5373 15.2351 14.8547 15.4112 15.1795C15.5368 15.4121 15.6609 15.6486 15.7825 15.8877C15.9056 16.13 16.0267 16.3748 16.1447 16.6227C16.1876 16.7127 16.23 16.8028 16.2724 16.8933C16.4959 17.3729 16.7098 17.8612 16.9111 18.3526C17.3747 19.4859 17.7707 20.6374 18.0674 21.7466C18.1819 22.1733 18.2813 22.5939 18.3645 23.0048C18.468 23.5177 18.5462 24.0152 18.5941 24.4904C18.5991 24.5411 18.6037 24.591 18.6082 24.6408C18.6158 24.7278 18.6229 24.8139 18.6284 24.8992C18.636 25.0124 18.642 25.1243 18.6461 25.2345C18.6486 25.3102 18.6501 25.3845 18.6511 25.4588C18.6516 25.4942 18.6526 25.5305 18.6526 25.5659C18.6526 25.7071 18.6491 25.8457 18.6456 25.9839C18.643 26.0718 18.64 26.1592 18.636 26.2462C18.6012 27.0318 18.5048 27.7663 18.3479 28.4483C18.2843 28.7246 18.2102 28.9918 18.1264 29.251C18.0427 29.5099 17.9498 29.7591 17.8464 29.9999ZM31.5357 17.1075C31.3203 16.8946 31.1064 16.6909 30.8955 16.5081C30.4813 16.1492 30.0646 15.8187 29.6463 15.5104C30.4717 13.1325 31.1578 10.0792 31.4777 7.25971C31.5589 6.54359 31.6099 5.90485 31.6381 5.32819C32.3994 8.67273 32.4362 13.5269 31.5357 17.1075ZM29.5152 1.55083C30.4147 2.43921 29.9233 9.32152 28.2095 14.5556C27.15 13.9282 26.0805 13.4626 25.0049 13.1597L24.8515 12.5747L26.8816 11.3221C27.0607 11.2115 27.1828 11.0454 27.2237 10.8578L28.0914 6.82033C28.1767 6.42161 27.873 6.03776 27.4124 5.96343C26.9513 5.88649 26.5098 6.1523 26.4235 6.55102L25.6188 10.2969L23.4071 11.6614C23.1281 11.8332 22.9964 12.134 23.0726 12.423L23.1715 12.7985C23.0126 12.781 22.8542 12.7666 22.6952 12.7561C21.664 12.6892 20.6515 12.7767 19.6727 13.0123C19.6692 12.8864 19.6611 12.7622 19.6531 12.6433C19.6283 12.2861 19.6051 11.9491 19.7237 11.7388C19.8982 11.4292 20.3064 11.1066 20.7398 10.7643C21.2382 10.3699 21.7538 9.96245 22.1065 9.43825C25.2929 4.71 28.5657 1.66494 29.5152 1.55083ZM25.0715 3.09981C22.9218 5.36404 21.0026 8.16383 20.6424 8.69896C20.4194 9.02948 20.0198 9.34513 19.5955 9.68002C19.0648 10.0997 18.5159 10.5334 18.1996 11.0952C17.8858 11.6531 17.9271 12.2512 17.9604 12.7325C17.9771 12.9738 17.9942 13.2226 17.9579 13.3761C17.8772 13.4792 17.796 13.5907 17.7147 13.707C17.4014 13.8552 17.0937 14.0205 16.792 14.2015C16.4641 13.6052 16.1205 13.0302 15.7638 12.4881C17.1119 10.2833 19.4765 7.59111 22.0696 5.36448C23.1609 4.42801 24.1659 3.68215 25.0715 3.09981ZM22.17 22.3224C22.1166 22.1628 22.1287 21.9962 22.1973 21.8463C22.2165 21.8047 22.2402 21.7649 22.2679 21.7269C22.333 21.6373 22.4198 21.559 22.5298 21.4987C22.5353 21.4956 22.5393 21.4917 22.5449 21.4886C22.5525 21.4847 22.5605 21.483 22.5681 21.4795C22.8572 21.3387 23.2018 21.361 23.4601 21.5144C23.5287 21.5555 23.5897 21.6071 23.6432 21.6661C23.6654 21.6906 23.6891 21.7138 23.7078 21.7413L24.0503 22.2358L25.3141 24.0602L26.6551 24.2924L27.7605 24.4843L27.9441 24.5162C28.1959 24.5595 28.4068 24.699 28.5243 24.8887C28.5637 24.9517 28.5924 25.0199 28.6091 25.092L29.1413 27.3986L32.7571 29.5676C33.1421 29.7984 33.2384 30.2566 32.9715 30.5902C32.8066 30.7961 32.5427 30.9067 32.2733 30.9067C32.1073 30.9067 31.9388 30.8643 31.7915 30.776L27.8942 28.4383C27.7136 28.3303 27.5889 28.165 27.5456 27.9784L27.0572 25.8606L26.9856 25.8479L25.635 25.614L24.6139 25.4369C24.4575 25.4098 24.3177 25.3429 24.2037 25.2507C24.1467 25.2044 24.0942 25.1541 24.0534 25.0951L23.1271 23.7572L22.6488 23.0669L22.2538 22.4972C22.216 22.4409 22.1902 22.3823 22.17 22.3224ZM11.7278 19.5095L10.3459 21.3063L11.7278 23.1032C11.8604 23.2755 11.9023 23.4879 11.8448 23.689L10.9967 26.6279C10.9009 26.9614 10.5558 27.1844 10.1754 27.1844C10.1078 27.1844 10.0382 27.1779 9.96905 27.1626C9.51449 27.0642 9.23802 26.6655 9.35204 26.2715L10.1088 23.6479L8.62101 21.7142C8.43132 21.4672 8.43132 21.1459 8.62101 20.8993L10.127 18.942L9.34044 15.193C9.25568 14.7943 9.56141 14.4113 10.0225 14.3388C10.4836 14.2671 10.9251 14.5311 11.0078 14.9303L11.8559 18.9713C11.8958 19.158 11.8493 19.3512 11.7278 19.5095Z" fill="#FFC800"/>
</svg>
