<svg width="39" height="38" viewBox="0 0 39 38" fill="none" xmlns="http://www.w3.org/2000/svg">
<path d="M38.4826 20.0224C38.1687 19.9286 37.8135 19.9778 37.5718 20.1535L36.0789 21.2224V13.5473C36.0789 11.3993 34.2964 9.43223 31.5942 8.52993V3.24326C31.6979 3.14531 31.7888 3.03769 31.7888 2.90473V0.600729C31.7888 0.268658 31.4167 0 30.9521 0H30.7575H25.9333H25.7331C25.2715 0 24.8982 0.268658 24.8982 0.600729V2.90473C24.8982 3.03898 24.992 3.15048 25.0966 3.24939V8.5288C22.3908 9.4282 20.6124 11.3946 20.6124 13.5463V20.5005L20.1233 20.1513C19.9714 20.0425 19.7406 19.9928 19.512 19.9883V15.445C19.512 14.5976 18.984 13.8503 18.1754 13.3198C18.9593 12.9963 19.512 12.4123 19.512 11.7198C19.512 10.691 18.3417 9.85095 16.9073 9.85095H5.17852C3.73912 9.85095 2.56789 10.69 2.56789 11.7198C2.56789 12.4123 3.12066 12.9948 3.90493 13.3185C3.09568 13.8503 2.56789 14.5976 2.56789 15.445V20.9679L1.42703 20.15C1.18495 19.976 0.828816 19.9262 0.515647 20.0199C0.203604 20.1092 0 20.327 0 20.5734V37.398C0 37.7304 0.374587 38 0.83579 38H38.1291C38.5899 38 38.9622 37.733 38.9658 37.4006L39 20.5734C39 20.3328 38.7935 20.1129 38.4826 20.0224ZM37.296 36.8042H1.67225V22.0204L2.56991 22.6644L3.4057 23.2659L4.24059 23.8647L4.87705 24.3225C5.1909 24.545 5.74524 24.545 6.05818 24.3225L10.1469 21.3881L14.2356 24.3225C14.5495 24.545 15.1047 24.545 15.417 24.3225L17.8387 22.5831L18.674 21.9817L19.4936 21.3958L19.5089 21.4081L20.6128 22.1971L22.2822 23.3932L23.3605 24.1653L23.574 24.3186C23.8878 24.5487 24.4431 24.5416 24.7542 24.3186L24.9716 24.1653L28.8448 21.3823L32.7225 24.1653L32.936 24.3186C33.2498 24.5416 33.8051 24.5416 34.1162 24.3186L34.3297 24.1653H34.4019V24.1155L36.0735 22.9134L37.3185 22.0204L37.296 36.8042ZM4.23879 11.7198C4.23879 11.3499 4.6595 11.0511 5.17695 11.0511H16.9055C17.422 11.0511 17.84 11.3498 17.84 11.7198C17.84 12.0896 17.4222 12.3902 16.9055 12.3902H5.17672C4.66107 12.3912 4.23879 12.0896 4.23879 11.7198ZM6.61793 13.7391H15.4642C16.7752 13.7391 17.8418 14.5041 17.8418 15.4463V17.1996H4.24059V15.4463C4.23879 14.5041 5.30338 13.7391 6.61793 13.7391ZM4.23879 18.3951H17.84V20.8869L14.8269 23.0484L10.7879 20.1497C10.4738 19.9259 9.82182 19.9259 9.50731 20.1497L5.46694 23.0484L4.23902 22.1684L4.23879 18.3951ZM26.7684 1.19694H29.9247V2.30416H26.7684V1.19694ZM22.2838 13.5447C22.2838 11.7501 23.8669 10.119 26.2238 9.48693C26.5547 9.39899 26.7684 9.17632 26.7684 8.92541V3.50401H29.9247V8.92525C29.9247 9.17616 30.142 9.39899 30.4664 9.48564C32.826 10.1212 34.4091 11.7511 34.4091 13.5447V14.2189H22.2838V13.5447ZM22.2838 15.4184H34.4091V22.4214L33.5326 23.0486L29.4936 20.1498C29.1762 19.926 28.517 19.926 28.207 20.1498L24.1706 23.0486L22.2892 21.6985V15.4185L22.2838 15.4184Z" fill="#DFB004"/>
<path d="M32.598 26.4317H32.5942C32.1325 26.4317 31.7593 26.6988 31.7593 27.0279L31.753 29.5491L31.7494 30.7446L31.7386 33.6221H7.23949V30.7446V30.1439V29.5451V27.0265C7.23949 26.6975 6.86535 26.4279 6.40415 26.4279C5.9434 26.4279 5.56836 26.6975 5.56836 27.0265V29.3499V29.9906V30.5913V34.2235C5.56836 34.5526 5.9434 34.8237 6.40415 34.8237H32.5735C33.0342 34.8237 33.4063 34.5567 33.4102 34.2235L33.421 30.7446L33.4237 29.5491L33.4365 27.0323C33.4327 26.7012 33.0567 26.4317 32.598 26.4317Z" fill="#DFB004"/>
</svg>
