<svg width="18" height="18" viewBox="0 0 18 18" fill="none" xmlns="http://www.w3.org/2000/svg">
<path d="M0.625 17.3334V15.6667H2.375V13C1.86458 12.8334 1.44531 12.5382 1.11719 12.1146C0.789062 11.691 0.625 11.2084 0.625 10.6667V4.00002H5.875V10.6667C5.875 11.2084 5.71094 11.691 5.38281 12.1146C5.05469 12.5382 4.63542 12.8334 4.125 13V15.6667H5.875V17.3334H0.625ZM2.375 8.16669H4.125V5.66669H2.375V8.16669ZM3.25 11.5C3.49792 11.5 3.70573 11.4202 3.87344 11.2604C4.04115 11.1007 4.125 10.9028 4.125 10.6667V9.83335H2.375V10.6667C2.375 10.9028 2.45885 11.1007 2.62656 11.2604C2.79427 11.4202 3.00208 11.5 3.25 11.5ZM9.375 17.3334C8.89375 17.3334 8.48177 17.1702 8.13906 16.8438C7.79635 16.5174 7.625 16.125 7.625 15.6667V7.70835C7.625 7.34724 7.73438 7.02433 7.95312 6.7396C8.17188 6.45488 8.45625 6.25002 8.80625 6.12502L9.6375 5.83335C9.84167 5.76391 9.99479 5.66321 10.0969 5.53127C10.199 5.39933 10.25 5.23613 10.25 5.04169V1.50002C10.25 1.26391 10.3339 1.06599 10.5016 0.90627C10.6693 0.746548 10.8771 0.666687 11.125 0.666687H13.75C13.9979 0.666687 14.2057 0.746548 14.3734 0.90627C14.5411 1.06599 14.625 1.26391 14.625 1.50002V5.04169C14.625 5.23613 14.676 5.39933 14.7781 5.53127C14.8802 5.66321 15.0333 5.76391 15.2375 5.83335L16.0687 6.12502C16.4187 6.25002 16.7031 6.45488 16.9219 6.7396C17.1406 7.02433 17.25 7.34724 17.25 7.70835V15.6667C17.25 16.125 17.0786 16.5174 16.7359 16.8438C16.3932 17.1702 15.9812 17.3334 15.5 17.3334H9.375ZM12 3.16669H12.875V2.33335H12V3.16669ZM9.375 9.00002H15.5V7.70835L14.6687 7.41669C14.1146 7.22224 13.6771 6.91669 13.3562 6.50002C13.0354 6.08335 12.875 5.61113 12.875 5.08335V4.83335H12V5.08335C12 5.61113 11.8396 6.08335 11.5188 6.50002C11.1979 6.91669 10.7604 7.22224 10.2063 7.41669L9.375 7.70835V9.00002ZM9.375 15.6667H15.5V14H9.375V15.6667ZM9.375 12.3334H15.5V10.6667H9.375V12.3334Z" fill="#FFC800"/>
</svg>
