<svg width="20" height="20" viewBox="0 0 20 20" fill="none" xmlns="http://www.w3.org/2000/svg">
<g clip-path="url(#clip0_11_251)">
<path d="M10.0056 18.3333C8.85648 18.3333 7.77662 18.1146 6.76598 17.6771C5.75534 17.2396 4.87155 16.6424 4.1146 15.8854C3.35766 15.1285 2.76044 14.2447 2.32294 13.2341C1.88544 12.2234 1.66669 11.1436 1.66669 9.99447C1.66669 8.84539 1.88612 7.7639 2.325 6.75001C2.76389 5.73612 3.35951 4.85418 4.11187 4.10418C4.86424 3.35418 5.74896 2.76043 6.76606 2.32293C7.78315 1.88543 8.86113 1.66668 10 1.66668C10.6361 1.66668 11.25 1.73612 11.8416 1.87501C12.4333 2.0139 13 2.20834 13.5417 2.45834V3.85418C13.0139 3.54862 12.4549 3.31598 11.8646 3.15626C11.2743 2.99654 10.6543 2.91668 10.0046 2.91668C8.04066 2.91668 6.36835 3.60418 4.98769 4.97918C3.60702 6.35418 2.91669 8.02441 2.91669 9.98989C2.91669 11.9554 3.60756 13.629 4.98931 15.0107C6.37105 16.3925 8.04466 17.0833 10.0101 17.0833C11.9756 17.0833 13.6459 16.3935 15.0209 15.0137C16.3959 13.6339 17.0834 11.9627 17.0834 10C17.0834 9.51691 17.0382 9.04892 16.9479 8.59603C16.8577 8.14313 16.7222 7.70834 16.5417 7.29168H17.875C18.0278 7.72802 18.1424 8.16813 18.2188 8.61199C18.2952 9.05585 18.3334 9.51852 18.3334 10C18.3334 11.1389 18.1146 12.2169 17.6771 13.234C17.2396 14.2511 16.6459 15.1358 15.8959 15.8882C15.1459 16.6405 14.2639 17.2361 13.25 17.675C12.2361 18.1139 11.1546 18.3333 10.0056 18.3333ZM16.875 5.83334V3.95834H15V2.70834H16.875V0.833344H18.125V2.70834H20V3.95834H18.125V5.83334H16.875ZM13.0417 8.89584C13.3542 8.89584 13.6198 8.78647 13.8386 8.56772C14.0573 8.34897 14.1667 8.08334 14.1667 7.77084C14.1667 7.45834 14.0573 7.19272 13.8386 6.97397C13.6198 6.75522 13.3542 6.64584 13.0417 6.64584C12.7292 6.64584 12.4636 6.75522 12.2448 6.97397C12.0261 7.19272 11.9167 7.45834 11.9167 7.77084C11.9167 8.08334 12.0261 8.34897 12.2448 8.56772C12.4636 8.78647 12.7292 8.89584 13.0417 8.89584ZM6.95835 8.89584C7.27085 8.89584 7.53648 8.78647 7.75523 8.56772C7.97398 8.34897 8.08335 8.08334 8.08335 7.77084C8.08335 7.45834 7.97398 7.19272 7.75523 6.97397C7.53648 6.75522 7.27085 6.64584 6.95835 6.64584C6.64585 6.64584 6.38023 6.75522 6.16148 6.97397C5.94273 7.19272 5.83335 7.45834 5.83335 7.77084C5.83335 8.08334 5.94273 8.34897 6.16148 8.56772C6.38023 8.78647 6.64585 8.89584 6.95835 8.89584ZM10 14.5625C10.9167 14.5625 11.7604 14.316 12.5313 13.8229C13.3021 13.3299 13.8611 12.6597 14.2084 11.8125H5.79169C6.1528 12.6597 6.7153 13.3299 7.47919 13.8229C8.24308 14.316 9.08335 14.5625 10 14.5625Z" fill="black"/>
</g>
<defs>
<clipPath id="clip0_11_251">
<rect width="20" height="20" fill="white"/>
</clipPath>
</defs>
</svg>
