<svg width="21" height="15" viewBox="0 0 21 15" fill="none" xmlns="http://www.w3.org/2000/svg">
<path d="M0.332825 5.61657C0.332825 5.61657 0.332825 9.06551 0.332825 9.81695C0.332825 12.4374 3.07876 14.5376 6.24074 14.5376H9.40273H11.2167H18.3561C19.4379 14.5376 20.3033 13.5356 20.3033 12.2832C20.3033 11.3391 20.3033 8.08285 20.3033 8.08285" fill="#FAC4BC"/>
<g opacity="0.1">
<path d="M0.332865 9.81695C0.332865 12.4374 3.0788 14.5376 6.24078 14.5376H9.40277H9.55255C6.4072 14.5376 3.64463 12.4181 3.64463 9.81695C3.64463 9.21965 3.64463 6.96532 3.64463 6.02119L0.316223 5.61657C0.332865 5.61657 0.332865 9.06551 0.332865 9.81695Z" fill="black"/>
</g>
<path d="M11.9656 3.24663C10.318 1.72447 8.25443 0.876686 6.14089 0.876686H6.07432C1.99703 0.973025 0.332825 2.99615 0.332825 5.61657C0.332825 8.83429 3.07876 10.3372 6.24074 10.3372H9.40273H11.2167H18.3561C19.4379 10.3372 20.3033 9.33526 20.3033 8.08285C20.3033 6.96532 19.5876 6.02119 18.639 5.84778L16.4756 5.4817C14.8114 5.23121 13.2637 4.4605 11.9656 3.24663Z" fill="#F48884"/>
<g opacity="0.1">
<path d="M6.07432 0.876686C1.99703 0.973025 0.332825 2.99615 0.332825 5.61657C0.332825 8.83429 3.07876 10.3372 6.24074 10.3372H7.90495C4.7596 10.3372 1.99703 8.81503 1.99703 5.61657C1.99703 3.16956 3.44488 1.24277 6.97299 0.934489C6.70672 0.915222 6.42381 0.895954 6.14089 0.895954H6.07432V0.876686Z" fill="black"/>
</g>
<path d="M6.90646 5.46243C6.90646 5.84779 6.24078 6.1368 5.59174 6.1368C4.9427 6.1368 4.41016 5.82852 4.41016 5.46243C4.41016 5.09634 4.9427 4.78806 5.59174 4.78806C6.24078 4.78806 6.90646 5.07707 6.90646 5.46243Z" fill="#F8F7FB"/>
<path d="M18.7722 5.38536L16.6087 5.01927C15.0277 4.74952 13.5466 4.01735 12.2985 2.86128C10.5843 1.28132 8.42086 0.394997 6.22412 0.394997H6.15755C2.24667 0.472068 0 2.37958 0 5.59731V9.79769C0 12.6301 2.89571 15 6.32397 15H18.456C19.7541 15 20.8192 13.7669 20.8192 12.264V8.10212C20.8025 6.73411 19.9371 5.57804 18.7722 5.38536ZM6.15755 1.35839H6.22412C8.2378 1.35839 10.2182 2.16764 11.7826 3.61272C13.1472 4.86513 14.7615 5.69365 16.4922 5.9634L18.6557 6.32948C19.4046 6.44509 19.9704 7.2158 19.9704 8.08286C19.9704 9.06552 19.2881 9.8555 18.4394 9.8555H6.32397C3.79438 9.8555 0.832101 8.73796 0.832101 5.61658C0.832101 2.95762 2.72929 1.43546 6.15755 1.35839ZM18.4394 14.0751H6.32397C3.34505 14.0751 0.832101 12.1291 0.832101 9.83623V8.46821C1.86391 9.9711 3.79438 10.8574 6.32397 10.8574H18.456C19.0385 10.8574 19.571 10.6069 19.9871 10.2023V12.3218C19.9704 13.2659 19.2881 14.0751 18.4394 14.0751Z" fill="#62355C"/>
<path d="M2.08024 6.09827C2.31322 6.09827 2.49629 5.88632 2.49629 5.61657C2.49629 4.98074 2.49629 3.30444 6.15753 3.30444C6.39052 3.30444 6.57358 3.09249 6.57358 2.82274C6.57358 2.55299 6.39052 2.32178 6.15753 2.32178C3.17861 2.32178 1.66418 3.42004 1.66418 5.59731C1.66418 5.88632 1.84725 6.09827 2.08024 6.09827Z" fill="#62355C"/>
<path d="M10.7507 5.13488C12.3317 6.59923 14.2456 7.56262 16.2592 7.89017L18.4227 8.25626C18.4394 8.25626 18.456 8.25626 18.4893 8.25626C18.689 8.25626 18.872 8.08285 18.9053 7.85164C18.9386 7.58189 18.7722 7.35068 18.5558 7.31214L16.3924 6.94605C14.5118 6.6185 12.7311 5.75145 11.2666 4.38343C11.0836 4.21002 10.8173 4.24856 10.6842 4.4605C10.5344 4.65318 10.5677 4.96147 10.7507 5.13488Z" fill="#62355C"/>
<path d="M4.07727 5.46243C4.07727 6.1368 4.74295 6.6185 5.6749 6.6185C6.50701 6.6185 7.40568 6.21388 7.40568 5.46243C7.40568 4.71099 6.50701 4.30636 5.6749 4.30636C4.75959 4.28709 4.07727 4.78806 4.07727 5.46243ZM5.6749 5.65511C5.29214 5.65511 5.04251 5.5395 4.94266 5.46243C5.04251 5.38536 5.29214 5.26975 5.6749 5.26975C6.04103 5.26975 6.34059 5.36609 6.49036 5.46243C6.34059 5.55877 6.04103 5.65511 5.6749 5.65511Z" fill="#62355C"/>
</svg>
