<svg width="27" height="20" viewBox="0 0 27 20" fill="none" xmlns="http://www.w3.org/2000/svg">
<path d="M1.21936 3.8804C1.21936 3.8804 1.21936 6.44347 1.21936 7.0019C1.21936 8.94926 4.67493 10.51 8.65407 10.51H12.6332H14.916H23.9005C25.2618 10.51 26.3508 9.76543 26.3508 8.83471C26.3508 8.13309 26.3508 5.71321 26.3508 5.71321" fill="#FAC4BC"/>
<g opacity="0.1">
<path d="M1.21937 7.0019C1.21937 8.94926 4.67494 10.51 8.65408 10.51H12.6332H12.8217C8.86351 10.51 5.38699 8.93494 5.38699 7.0019C5.38699 6.55802 5.38699 4.88272 5.38699 4.1811L1.19843 3.8804C1.21937 3.8804 1.21937 6.44347 1.21937 7.0019Z" fill="black"/>
</g>
<path d="M15.8584 2.11918C13.7851 0.987991 11.1882 0.357964 8.52842 0.357964H8.44464C3.31365 0.429558 1.21936 1.93303 1.21936 3.88039C1.21936 6.27163 4.67493 7.3885 8.65407 7.3885H12.6332H14.916H23.9005C25.2618 7.3885 26.3508 6.64392 26.3508 5.7132C26.3508 4.88271 25.4502 4.18109 24.2565 4.05222L21.5339 3.78016C19.4396 3.59402 17.492 3.02126 15.8584 2.11918Z" fill="#F48884"/>
<g opacity="0.1">
<path d="M8.44464 0.357964C3.31365 0.429558 1.21936 1.93303 1.21936 3.88039C1.21936 6.27163 4.67493 7.3885 8.65407 7.3885H10.7484C6.79016 7.3885 3.31365 6.25731 3.31365 3.88039C3.31365 2.0619 5.13567 0.630021 9.57556 0.40092C9.24047 0.386601 8.88444 0.372282 8.52841 0.372282H8.44464V0.357964Z" fill="black"/>
</g>
<path d="M9.4918 3.76585C9.4918 4.05222 8.65409 4.267 7.83731 4.267C7.02054 4.267 6.35037 4.0379 6.35037 3.76585C6.35037 3.49379 7.02054 3.26469 7.83731 3.26469C8.65409 3.26469 9.4918 3.47947 9.4918 3.76585Z" fill="#F8F7FB"/>
<path d="M24.424 3.70857L21.7015 3.43651C19.7119 3.23605 17.848 2.69194 16.2773 1.83281C14.1202 0.658665 11.3976 0 8.63313 0H8.54936C3.62779 0.0572752 0.800507 1.47484 0.800507 3.86608V6.98758C0.800507 9.09245 4.44456 10.8537 8.75879 10.8537H24.0261C25.6597 10.8537 27 9.93725 27 8.82039V5.72752C26.9791 4.71089 25.89 3.85176 24.424 3.70857ZM8.54936 0.715941H8.63313C11.1672 0.715941 13.6594 1.31733 15.628 2.39124C17.3454 3.32196 19.3768 3.93767 21.5549 4.13814L24.2774 4.41019C25.2199 4.49611 25.9319 5.06886 25.9319 5.71321C25.9319 6.44347 25.0733 7.03054 24.0052 7.03054H8.75879C5.57548 7.03054 1.84765 6.20005 1.84765 3.8804C1.84765 1.9044 4.23513 0.773216 8.54936 0.715941ZM24.0052 10.1664H8.75879C5.01002 10.1664 1.84765 8.72016 1.84765 7.01622V5.99958C3.14611 7.11645 5.57548 7.77512 8.75879 7.77512H24.0261C24.7591 7.77512 25.4293 7.58897 25.9529 7.28828V8.86335C25.9319 9.56497 25.0733 10.1664 24.0052 10.1664Z" fill="#62355C"/>
<path d="M3.41838 4.23837C3.71158 4.23837 3.94195 4.08086 3.94195 3.8804C3.94195 3.40788 3.94195 2.16214 8.54937 2.16214C8.84257 2.16214 9.07295 2.00464 9.07295 1.80417C9.07295 1.60371 8.84257 1.43188 8.54937 1.43188C4.80061 1.43188 2.89481 2.24806 2.89481 3.86608C2.89481 4.08086 3.12518 4.23837 3.41838 4.23837Z" fill="#62355C"/>
<path d="M14.3296 3.52243C16.3192 4.61066 18.7276 5.3266 21.2617 5.57002L23.9842 5.84207C24.0052 5.84207 24.0261 5.84207 24.068 5.84207C24.3193 5.84207 24.5497 5.7132 24.5916 5.54138C24.6335 5.34092 24.424 5.16909 24.1518 5.14045L21.4292 4.8684C19.0627 4.62498 16.8218 3.98063 14.9788 2.96399C14.7484 2.83512 14.4134 2.86376 14.2458 3.02127C14.0573 3.16446 14.0992 3.39356 14.3296 3.52243Z" fill="#62355C"/>
<path d="M5.93152 3.76585C5.93152 4.26701 6.76923 4.62498 7.94203 4.62498C8.98917 4.62498 10.1201 4.32428 10.1201 3.76585C10.1201 3.20741 8.98917 2.90672 7.94203 2.90672C6.79017 2.8924 5.93152 3.26469 5.93152 3.76585ZM7.94203 3.90903C7.46035 3.90903 7.1462 3.82312 7.02055 3.76585C7.1462 3.70857 7.46035 3.62266 7.94203 3.62266C8.40277 3.62266 8.77975 3.69425 8.96823 3.76585C8.77975 3.83744 8.40277 3.90903 7.94203 3.90903Z" fill="#62355C"/>
<path d="M0.947083 9.12325C0.947083 9.12325 0.947083 11.6863 0.947083 12.2448C0.947083 14.1921 4.40265 15.7529 8.38179 15.7529H12.3609H14.6437H23.6282C24.9895 15.7529 26.0785 15.0083 26.0785 14.0776C26.0785 13.3759 26.0785 10.9561 26.0785 10.9561" fill="#FAC4BC"/>
<g opacity="0.1">
<path d="M0.94709 12.2448C0.94709 14.1921 4.40266 15.7529 8.3818 15.7529H12.3609H12.5494C8.59123 15.7529 5.11472 14.1778 5.11472 12.2448C5.11472 11.8009 5.11472 10.1256 5.11472 9.42395L0.926147 9.12325C0.94709 9.12325 0.94709 11.6863 0.94709 12.2448Z" fill="black"/>
</g>
<path d="M15.5861 7.36203C13.5128 6.23084 10.9159 5.60081 8.25614 5.60081H8.17237C3.04137 5.67241 0.947083 7.17588 0.947083 9.12324C0.947083 11.5145 4.40265 12.6314 8.38179 12.6314H12.3609H14.6437H23.6282C24.9895 12.6314 26.0785 11.8868 26.0785 10.9561C26.0785 10.1256 25.178 9.42394 23.9842 9.29507L21.2616 9.02301C19.1674 8.83687 17.2197 8.26411 15.5861 7.36203Z" fill="#F48884"/>
<g opacity="0.1">
<path d="M8.17237 5.60081C3.04137 5.67241 0.947083 7.17588 0.947083 9.12324C0.947083 11.5145 4.40265 12.6314 8.38179 12.6314H10.4761C6.51788 12.6314 3.04137 11.5002 3.04137 9.12324C3.04137 7.30475 4.8634 5.87287 9.30328 5.64377C8.96819 5.62945 8.61217 5.61513 8.25614 5.61513H8.17237V5.60081Z" fill="black"/>
</g>
<path d="M9.21952 9.0087C9.21952 9.29507 8.38181 9.50985 7.56504 9.50985C6.74827 9.50985 6.07809 9.28075 6.07809 9.0087C6.07809 8.73664 6.74827 8.50754 7.56504 8.50754C8.38181 8.50754 9.21952 8.72232 9.21952 9.0087Z" fill="#F8F7FB"/>
<path d="M24.1518 8.95142L21.4292 8.67937C19.4396 8.4789 17.5757 7.93479 16.005 7.07566C13.8479 5.90152 11.1253 5.24285 8.36085 5.24285H8.27708C3.35551 5.30013 0.528229 6.71769 0.528229 9.10893V12.2304C0.528229 14.3353 4.17228 16.0965 8.48651 16.0965H23.7538C25.3874 16.0965 26.7277 15.1801 26.7277 14.0632V10.9704C26.7068 9.95374 25.6178 9.09461 24.1518 8.95142ZM8.27708 5.95879H8.36085C10.8949 5.95879 13.3871 6.56018 15.3558 7.63409C17.0731 8.56482 19.1045 9.18052 21.2826 9.38099L24.0052 9.65305C24.9476 9.73896 25.6596 10.3117 25.6596 10.9561C25.6596 11.6863 24.801 12.2734 23.7329 12.2734H8.48651C5.3032 12.2734 1.57537 11.4429 1.57537 9.12325C1.57537 7.14725 3.96286 6.01607 8.27708 5.95879ZM23.7329 15.4092H8.48651C4.73774 15.4092 1.57537 13.963 1.57537 12.2591V11.2424C2.87383 12.3593 5.3032 13.018 8.48651 13.018H23.7538C24.4868 13.018 25.157 12.8318 25.6806 12.5311V14.1062C25.6596 14.8078 24.801 15.4092 23.7329 15.4092Z" fill="#62355C"/>
<path d="M3.1461 9.48122C3.4393 9.48122 3.66967 9.32372 3.66967 9.12325C3.66967 8.65073 3.66967 7.405 8.2771 7.405C8.5703 7.405 8.80067 7.24749 8.80067 7.04702C8.80067 6.84656 8.5703 6.67474 8.2771 6.67474C4.52833 6.67474 2.62253 7.49091 2.62253 9.10893C2.62253 9.32372 2.8529 9.48122 3.1461 9.48122Z" fill="#62355C"/>
<path d="M14.0573 8.76528C16.0469 9.85351 18.4553 10.5694 20.9894 10.8129L23.712 11.0849C23.7329 11.0849 23.7538 11.0849 23.7957 11.0849C24.047 11.0849 24.2774 10.9561 24.3193 10.7842C24.3612 10.5838 24.1518 10.4119 23.8795 10.3833L21.1569 10.1112C18.7904 9.86783 16.5495 9.22348 14.7065 8.20684C14.4762 8.07798 14.1411 8.10661 13.9735 8.26412C13.785 8.40731 13.8269 8.63641 14.0573 8.76528Z" fill="#62355C"/>
<path d="M5.65924 9.0087C5.65924 9.50986 6.49695 9.86783 7.66975 9.86783C8.7169 9.86783 9.84781 9.56713 9.84781 9.0087C9.84781 8.45026 8.7169 8.14957 7.66975 8.14957C6.5179 8.13525 5.65924 8.50754 5.65924 9.0087ZM7.66975 9.15189C7.18807 9.15189 6.87393 9.06597 6.74827 9.0087C6.87393 8.95142 7.18807 8.86551 7.66975 8.86551C8.1305 8.86551 8.50747 8.9371 8.69595 9.0087C8.50747 9.08029 8.1305 9.15189 7.66975 9.15189Z" fill="#62355C"/>
<path d="M0.418854 13.0267C0.418854 13.0267 0.418854 15.5898 0.418854 16.1483C0.418854 18.0956 3.87442 19.6564 7.85357 19.6564H11.8327H14.1155H23.1C24.4612 19.6564 25.5503 18.9118 25.5503 17.9811C25.5503 17.2794 25.5503 14.8596 25.5503 14.8596" fill="#FAC4BC"/>
<g opacity="0.1">
<path d="M0.418862 16.1483C0.418862 18.0956 3.87443 19.6564 7.85357 19.6564H11.8327H12.0212C8.063 19.6564 4.58649 18.0813 4.58649 16.1483C4.58649 15.7044 4.58649 14.0291 4.58649 13.3274L0.397919 13.0267C0.418862 13.0267 0.418862 15.5898 0.418862 16.1483Z" fill="black"/>
</g>
<path d="M15.0579 11.2655C12.9846 10.1343 10.3877 9.5043 7.72791 9.5043H7.64414C2.51314 9.5759 0.418854 11.0794 0.418854 13.0267C0.418854 15.418 3.87442 16.5348 7.85357 16.5348H11.8327H14.1155H23.1C24.4612 16.5348 25.5503 15.7903 25.5503 14.8595C25.5503 14.029 24.6497 13.3274 23.456 13.1986L20.7334 12.9265C18.6391 12.7404 16.6914 12.1676 15.0579 11.2655Z" fill="#F48884"/>
<g opacity="0.1">
<path d="M7.64414 9.5043C2.51314 9.5759 0.418854 11.0794 0.418854 13.0267C0.418854 15.418 3.87442 16.5348 7.85357 16.5348H9.94785C5.98965 16.5348 2.51314 15.4037 2.51314 13.0267C2.51314 11.2082 4.33517 9.77636 8.77505 9.54726C8.43997 9.53294 8.08394 9.51862 7.72791 9.51862H7.64414V9.5043Z" fill="black"/>
</g>
<path d="M8.69129 12.9122C8.69129 13.1986 7.85358 13.4133 7.03681 13.4133C6.22004 13.4133 5.54987 13.1842 5.54987 12.9122C5.54987 12.6401 6.22004 12.411 7.03681 12.411C7.85358 12.411 8.69129 12.6258 8.69129 12.9122Z" fill="#F8F7FB"/>
<path d="M23.6235 12.8549L20.901 12.5829C18.9114 12.3824 17.0475 11.8383 15.4768 10.9791C13.3197 9.805 10.5971 9.14634 7.83263 9.14634H7.74885C2.82728 9.20361 0 10.6212 0 13.0124V16.1339C0 18.2388 3.64406 20 7.95828 20H23.2256C24.8592 20 26.1995 19.0836 26.1995 17.9667V14.8739C26.1786 13.8572 25.0895 12.9981 23.6235 12.8549ZM7.74885 9.86228H7.83263C10.3667 9.86228 12.8589 10.4637 14.8275 11.5376C16.5449 12.4683 18.5763 13.084 20.7544 13.2845L23.4769 13.5565C24.4194 13.6424 25.1314 14.2152 25.1314 14.8595C25.1314 15.5898 24.2728 16.1769 23.2047 16.1769H7.95828C4.77497 16.1769 1.04714 15.3464 1.04714 13.0267C1.04714 11.0507 3.43463 9.91956 7.74885 9.86228ZM23.2047 19.3127H7.95828C4.20951 19.3127 1.04714 17.8665 1.04714 16.1626V15.1459C2.3456 16.2628 4.77497 16.9215 7.95828 16.9215H23.2256C23.9586 16.9215 24.6288 16.7353 25.1524 16.4346V18.0097C25.1314 18.7113 24.2728 19.3127 23.2047 19.3127Z" fill="#62355C"/>
<path d="M2.61787 13.3847C2.91107 13.3847 3.14144 13.2272 3.14144 13.0267C3.14144 12.5542 3.14144 11.3085 7.74887 11.3085C8.04207 11.3085 8.27244 11.151 8.27244 10.9505C8.27244 10.75 8.04207 10.5782 7.74887 10.5782C4.0001 10.5782 2.0943 11.3944 2.0943 13.0124C2.0943 13.2272 2.32467 13.3847 2.61787 13.3847Z" fill="#62355C"/>
<path d="M13.5291 12.6688C15.5186 13.757 17.9271 14.4729 20.4612 14.7164L23.1837 14.9884C23.2047 14.9884 23.2256 14.9884 23.2675 14.9884C23.5188 14.9884 23.7492 14.8595 23.7911 14.6877C23.833 14.4873 23.6235 14.3154 23.3513 14.2868L20.6287 14.0147C18.2622 13.7713 16.0213 13.127 14.1783 12.1103C13.9479 11.9815 13.6128 12.0101 13.4453 12.1676C13.2568 12.3108 13.2987 12.5399 13.5291 12.6688Z" fill="#62355C"/>
<path d="M5.13101 12.9122C5.13101 13.4133 5.96873 13.7713 7.14153 13.7713C8.18867 13.7713 9.31958 13.4706 9.31958 12.9122C9.31958 12.3538 8.18867 12.0531 7.14153 12.0531C5.98967 12.0387 5.13101 12.411 5.13101 12.9122ZM7.14153 13.0554C6.65984 13.0554 6.3457 12.9695 6.22004 12.9122C6.3457 12.8549 6.65984 12.769 7.14153 12.769C7.60227 12.769 7.97924 12.8406 8.16772 12.9122C7.97924 12.9838 7.60227 13.0554 7.14153 13.0554Z" fill="#62355C"/>
</svg>
