<svg width="39" height="38" viewBox="0 0 39 38" fill="none" xmlns="http://www.w3.org/2000/svg">
<path d="M34.7529 3.51026C34.5605 3.24767 34.2152 2.95899 33.772 2.96007C32.7804 3.09739 32.5903 3.75952 32.1659 4.36982C31.9636 4.71916 31.7438 5.1295 31.4975 5.58196C28.3755 2.13542 24.0523 0 19.2827 0C14.3812 0 9.95149 2.25546 6.81221 5.87118C6.15412 5.08847 5.38707 4.57536 4.49347 4.48591C3.69006 4.47241 2.96379 5.06453 2.55001 5.9061C0.927366 9.03787 0 12.6673 0 16.5283C0.000652386 27.0143 6.82559 35.7402 15.8487 37.6226C15.9083 37.6359 15.9681 37.6478 16.0278 37.6602C16.0422 37.6631 16.0565 37.6658 16.0709 37.6687C17.1122 37.8848 18.1857 38.0004 19.2827 38C19.3124 38 19.3416 37.9984 19.3713 37.9982C19.4143 37.9984 19.4569 38 19.5003 38C30.2681 38 38.999 28.3891 38.9999 16.5283C39.0107 11.3214 37.5874 7.20949 34.7529 3.51026ZM30.5555 7.09034C30.5732 7.11068 30.5936 7.12598 30.6129 7.14416C29.4983 9.00547 27.9174 11.1787 25.4399 12.8953C23.6268 14.1508 21.152 16.1608 19.0291 17.9463C19.0361 17.8086 19.0409 17.6702 19.0409 17.5299C19.0325 15.0786 18.0479 12.1156 17.7323 8.98261C17.71 8.76286 17.6995 8.54941 17.6995 8.34154C17.6397 4.8824 20.8401 2.78981 22.5427 2.17501C25.6577 2.90266 28.4275 4.65131 30.5555 7.09034ZM19.2827 1.79994C19.8713 1.79994 20.4521 1.83702 21.0236 1.90667C19.1366 2.95323 16.9322 5.02926 16.8841 8.34154C16.8841 8.58361 16.8961 8.83071 16.9226 9.08358C17.2605 12.3399 18.2343 15.3408 18.2257 17.5299C18.2254 17.9661 18.1872 18.3641 18.106 18.7274C16.843 19.8015 15.7822 20.7266 15.1795 21.2554C14.8527 20.7957 14.5154 20.3467 14.1685 19.914C10.7688 15.704 10.1655 14.843 9.13275 10.8634C8.77377 9.60551 8.32999 8.38599 7.7859 7.35473C10.6437 3.93896 14.7322 1.80048 19.2827 1.79994ZM1.63096 16.5283C1.63162 12.9858 2.47988 9.66904 3.96585 6.79914C4.24866 6.29539 4.37588 6.29863 4.49331 6.28513C4.69343 6.23906 5.37631 6.66488 5.99053 7.63171C6.61356 8.57155 7.20103 9.92173 7.56197 11.3491C8.59534 15.4992 9.578 16.9944 12.9546 21.1161C15.997 24.8011 18.3402 30.3235 18.2937 32.6705C18.2937 32.844 18.282 32.9943 18.2622 33.1162C18.059 34.3855 17.917 35.1287 17.8281 35.5421C17.7408 35.954 17.7198 35.9654 17.7287 35.97L17.7271 35.9736L17.7268 35.9753C17.7121 36.0158 17.7041 36.057 17.6953 36.098C17.1127 36.0329 16.5383 35.9362 15.9735 35.8109C15.4676 35.6909 14.3399 35.3389 14.2687 35.3353C6.95671 32.8662 1.64564 25.3871 1.63096 16.5283ZM21.9735 35.9459C21.13 36.1068 20.2629 36.193 19.3776 36.1988C19.3723 36.1988 19.3672 36.1986 19.3617 36.1986C19.4582 35.7832 19.6174 34.9886 19.8687 33.4299C19.9075 33.1844 19.9245 32.9315 19.9245 32.6709C19.8881 30.0992 18.3691 26.2126 16.1506 22.7026C17.7866 21.2658 23.1804 16.5796 26.3057 14.4202C29.1933 12.4239 30.9766 9.85046 32.1602 7.82159C32.7514 6.80814 33.1976 5.92428 33.5372 5.34331C33.6134 5.21139 33.6846 5.09657 33.7477 5.001C36.1955 8.34892 37.3579 11.8246 37.3683 16.5285C37.3543 25.1835 32.2843 32.5222 25.2323 35.1578C24.9414 35.2663 22.6156 35.8235 21.9735 35.9459Z" fill="#DFB004"/>
</svg>
