<svg width="19" height="18" viewBox="0 0 19 18" fill="none" xmlns="http://www.w3.org/2000/svg">
<path d="M13.9166 17.5H4.66665V6.83334L10.4583 0.833344L11.2708 1.47918C11.3541 1.54862 11.4166 1.64584 11.4583 1.77084C11.5 1.89584 11.5208 2.04862 11.5208 2.22918V2.43751L10.5833 6.83334H16.8125C17.1458 6.83334 17.4375 6.95834 17.6875 7.20834C17.9375 7.45834 18.0625 7.75001 18.0625 8.08334V9.78832C18.0625 9.88778 18.0729 9.98959 18.0937 10.0938C18.1146 10.1979 18.1041 10.2986 18.0625 10.3958L15.4375 16.4375C15.3142 16.7326 15.1087 16.9835 14.8209 17.1901C14.5332 17.3967 14.2318 17.5 13.9166 17.5ZM5.91665 16.25H14.1875L16.8125 10.0208V8.08334H9.04165L10.1458 2.89584L5.91665 7.35418V16.25ZM4.66665 6.83334V8.08334H1.89581V16.25H4.66665V17.5H0.645813V6.83334H4.66665Z" fill="black"/>
</svg>
