<svg width="32" height="36" viewBox="0 0 32 36" fill="none" xmlns="http://www.w3.org/2000/svg">
<path d="M31.1186 10.6645C31.1178 10.6566 31.1163 10.649 31.1151 10.6411C31.1136 10.6311 31.1122 10.621 31.1101 10.611C31.1082 10.6015 31.1057 10.5924 31.1032 10.5832C31.101 10.575 31.0989 10.5669 31.0964 10.559C31.0934 10.5493 31.0899 10.5398 31.0863 10.5303C31.0835 10.523 31.0807 10.5156 31.0776 10.5082C31.0736 10.4989 31.0692 10.4897 31.0647 10.4807C31.0612 10.4734 31.0574 10.4663 31.0535 10.4591C31.0488 10.4506 31.0438 10.4421 31.0386 10.4337C31.034 10.4264 31.0292 10.4192 31.0243 10.412C31.019 10.4042 31.0136 10.3966 31.0079 10.3891C31.0023 10.3818 30.9964 10.3747 30.9903 10.3675C30.9845 10.3606 30.9787 10.3537 30.9726 10.3471C30.9703 10.3446 30.9683 10.342 30.9661 10.3397L24.3142 3.38109V0.574468C24.3142 0.257132 24.0356 0 23.6918 0H7.42967C7.08597 0 6.80733 0.257132 6.80733 0.574468V3.38109L0.155585 10.3397C0.153345 10.342 0.151436 10.3445 0.149279 10.3469C0.142889 10.3537 0.136915 10.3608 0.13094 10.3679C0.125132 10.3748 0.119406 10.3818 0.114013 10.3888C0.108121 10.3966 0.102562 10.4045 0.097002 10.4124C0.0922722 10.4193 0.0876257 10.4263 0.0832278 10.4334C0.0778342 10.442 0.0727724 10.4506 0.0678767 10.4595C0.0640596 10.4664 0.0604915 10.4734 0.0570064 10.4804C0.0523596 10.4896 0.0479616 10.499 0.0438957 10.5085C0.0408255 10.5156 0.0380871 10.5228 0.0353488 10.53C0.0316978 10.5396 0.02813 10.5492 0.0250597 10.559C0.0225704 10.5669 0.0204958 10.5749 0.0184213 10.5829C0.0159319 10.5923 0.0133596 10.6015 0.0114511 10.611C0.00937664 10.6209 0.00796588 10.631 0.00647227 10.641C0.00531056 10.6489 0.00381696 10.6566 0.00298718 10.6646C0.00107867 10.6828 0 10.7013 0 10.7197V35.4255C0 35.7429 0.278643 36 0.62234 36H30.4994C30.8432 36 31.1218 35.7429 31.1218 35.4255V10.7197C31.1216 10.7012 31.1205 10.6828 31.1186 10.6645ZM29.1201 10.1453H18.2635L23.6918 4.46653L29.1201 10.1453ZM23.0695 1.14894V3.02385H12.4084C12.0647 3.02385 11.786 3.28098 11.786 3.59832C11.786 3.91565 12.0647 4.17278 12.4084 4.17278H22.3127L16.6036 10.1453H2.00136L7.71047 4.17278H9.91903C10.2627 4.17278 10.5414 3.91565 10.5414 3.59832C10.5414 3.28098 10.2627 3.02385 9.91903 3.02385H8.05201V1.14894H23.0695ZM1.2446 15.8899H16.2621V30.2553H1.2446V15.8899ZM16.2621 14.741H1.2446V11.2942H16.2621V14.741ZM1.2446 31.4043H16.2621V34.8511H1.2446V31.4043ZM17.5068 34.8511V11.2942H29.8769V14.741H19.3738C19.03 14.741 18.7514 14.9981 18.7514 15.3155C18.7514 15.6328 19.03 15.8899 19.3738 15.8899H29.8769V30.2553H19.3738C19.03 30.2553 18.7514 30.5125 18.7514 30.8298C18.7514 31.1471 19.03 31.4043 19.3738 31.4043H29.8769V34.8511H17.5068Z" fill="#DFB004"/>
<path d="M12.3074 21.8101L9.25184 18.0355C9.13434 17.8903 8.94955 17.8048 8.75331 17.8048C8.55706 17.8048 8.37227 17.8903 8.25477 18.0355L5.19866 21.8109C4.62611 22.5205 4.32349 23.3644 4.32349 24.2513C4.32349 26.506 6.31074 28.3404 8.75331 28.3404C11.1959 28.3404 13.1831 26.506 13.1831 24.2513C13.1831 23.3644 12.8805 22.5205 12.3074 21.8101ZM8.75331 27.1915C6.99698 27.1915 5.56817 25.8725 5.56817 24.2513C5.56817 23.6135 5.78557 23.0069 6.19632 22.4978L8.75331 19.3391L11.3097 22.497C11.721 23.0068 11.9384 23.6135 11.9384 24.2512C11.9384 25.8725 10.5096 27.1915 8.75331 27.1915Z" fill="#DFB004"/>
</svg>
