<svg width="39" height="36" viewBox="0 0 39 36" fill="none" xmlns="http://www.w3.org/2000/svg">
<path d="M36.3282 17.483C34.6756 15.7073 32.5002 14.7084 30.7941 14.0546C29.9427 13.728 29.2004 13.4798 28.7273 13.2816C28.4914 13.1841 28.3273 13.0988 28.2567 13.0496L28.2305 13.0553L28.2055 12.9815C27.3094 10.9062 26.0513 8.36587 26.0495 8.362C25.9134 8.08615 25.5194 7.90091 25.0739 7.89891C24.9053 6.70116 24.6741 5.53611 24.6756 4.526C24.6756 4.10309 24.7154 3.70846 24.8122 3.35268C24.8543 3.1968 24.7208 3.04266 24.4931 2.98461C24.2654 2.92656 24.0053 2.98034 23.8716 3.11259C23.3526 3.64014 22.1381 4.97014 21.1776 6.43412C21.2018 6.04791 21.2165 5.64768 21.2167 5.24252C21.2037 3.32665 20.9285 1.32151 19.6586 0.140579C19.5571 0.0479623 19.3913 -0.00461847 19.2155 0.000319317C19.0394 0.0052571 18.8815 0.0671796 18.7929 0.165135C17.7251 1.35421 17.431 3.00343 17.4256 4.61822C17.4258 5.28375 17.4795 5.94355 17.5596 6.56077C16.6154 4.95719 15.2413 3.38003 13.8941 2.98194C13.7271 2.94204 13.5429 2.96006 13.4022 3.02959C13.2606 3.09952 13.1852 3.20935 13.2007 3.32385C13.4028 4.81026 13.4915 6.40169 13.6687 7.91546C13.3153 7.96564 13.0203 8.13152 12.9066 8.362C12.9047 8.36627 11.6474 10.9064 10.7549 12.9819L10.7299 13.0557L10.7033 13.0502C10.1125 13.568 5.50263 14.4133 2.66215 17.4841C0.884286 19.398 6.81466e-08 21.5582 6.81466e-08 23.718C-0.000412764 26.8611 1.87488 30.0122 5.59531 32.4076C9.25507 34.7653 14.0499 36.0004 18.8674 36C18.9548 36 19.9792 36 20.0665 36C24.8999 36.0004 29.7109 34.7659 33.3845 32.4082C37.1175 30.0131 39.001 26.8618 39 23.7178C38.9998 21.5578 38.112 19.3972 36.3282 17.483ZM24.0966 8.34398C24.0898 8.35626 24.0809 8.36787 24.0751 8.38055L22.4723 11.9739L20.9557 9.10667C21.2877 7.74104 22.6112 5.91486 23.6486 4.67574C23.6724 5.82517 23.9382 7.09032 24.0966 8.34398ZM19.2695 1.06008C19.9427 2.07713 20.1957 3.69098 20.185 5.24265C20.1852 6.1835 20.1045 7.10153 20.0073 7.86715C19.8454 7.8115 19.6623 7.78174 19.4739 7.78708C19.2396 7.77907 19.0121 7.82351 18.8251 7.90799C18.6327 6.97555 18.4577 5.80195 18.4581 4.61835C18.454 3.32679 18.6769 2.03095 19.2695 1.06008ZM17.7305 9.58323L16.472 11.967L14.8818 8.38135C14.85 8.30968 14.8004 8.24362 14.7373 8.18477C14.5676 6.8465 14.4774 5.41507 14.3226 4.02862C15.7481 5.17952 17.7245 8.34758 17.7305 9.58323ZM31.9303 31.4614C28.641 33.5713 24.3579 34.6651 20.0663 34.6655C19.96 34.6655 18.9735 34.6655 18.8672 34.6655C14.594 34.6651 10.3276 33.5721 7.05158 31.4622C3.73097 29.323 2.0654 26.5208 2.06416 23.7181C2.06416 21.793 2.85143 19.8721 4.43154 18.1714C5.84632 16.6511 7.65823 15.8102 9.23298 15.2012C10.7252 14.5409 12.1548 14.4243 12.7288 13.3372L12.7431 13.3398C13.0872 12.5398 13.4887 11.665 13.8497 10.8963L15.3945 14.3792C15.5192 14.6599 15.9091 14.8548 16.3613 14.8621C16.813 14.8695 17.2176 14.6873 17.3633 14.4107L19.4696 10.4209L21.5799 14.4111C21.7261 14.6873 22.1296 14.8695 22.5819 14.8621C23.0335 14.8548 23.4228 14.6607 23.5481 14.38L25.1047 10.8897C25.4672 11.66 25.8709 12.538 26.2175 13.3404L26.2319 13.3377C26.8087 14.4257 28.2412 14.5406 29.74 15.2022C31.3205 15.8111 33.1401 16.6524 34.5604 18.1726C36.1453 19.873 36.9354 21.7936 36.9354 23.7183C36.9344 26.5198 35.2633 29.3217 31.9303 31.4614Z" fill="#DFB004"/>
</svg>
