<svg width="8" height="8" viewBox="0 0 8 8" fill="none" xmlns="http://www.w3.org/2000/svg">
<path d="M6.91667 7.5L4.29167 4.875C4.08333 5.04167 3.84375 5.17361 3.57292 5.27083C3.30208 5.36806 3.01389 5.41667 2.70833 5.41667C1.95139 5.41667 1.31076 5.15451 0.786458 4.63021C0.262153 4.1059 0 3.46528 0 2.70833C0 1.95139 0.262153 1.31076 0.786458 0.786458C1.31076 0.262153 1.95139 0 2.70833 0C3.46528 0 4.1059 0.262153 4.63021 0.786458C5.15451 1.31076 5.41667 1.95139 5.41667 2.70833C5.41667 3.01389 5.36806 3.30208 5.27083 3.57292C5.17361 3.84375 5.04167 4.08333 4.875 4.29167L7.5 6.91667L6.91667 7.5ZM2.70833 4.58333C3.22917 4.58333 3.67188 4.40104 4.03646 4.03646C4.40104 3.67188 4.58333 3.22917 4.58333 2.70833C4.58333 2.1875 4.40104 1.74479 4.03646 1.38021C3.67188 1.01562 3.22917 0.833333 2.70833 0.833333C2.1875 0.833333 1.74479 1.01562 1.38021 1.38021C1.01562 1.74479 0.833333 2.1875 0.833333 2.70833C0.833333 3.22917 1.01562 3.67188 1.38021 4.03646C1.74479 4.40104 2.1875 4.58333 2.70833 4.58333ZM2.29167 3.95833V3.125H1.45833V2.29167H2.29167V1.45833H3.125V2.29167H3.95833V3.125H3.125V3.95833H2.29167Z" fill="#FFC800"/>
</svg>
