<svg width="39" height="36" viewBox="0 0 39 36" fill="none" xmlns="http://www.w3.org/2000/svg">
<path d="M35.8839 16.4452C35.4944 16.0606 35.1049 15.6759 34.6667 15.3232C32.2809 13.3998 28.97 11.8931 25.367 11.1558C25.1723 11.1238 25.0262 10.9955 25.0262 10.8353V4.71238V4.68032H25.4157H26.7303V4.23152V0.480855V0H25.221H13.8277H12.2697V0.480855V4.16741V4.64826H13.5843H13.9738V4.68032V5.86643C12.9026 5.2894 11.4906 4.96883 10.03 4.96883C6.47565 4.96883 3.603 6.8602 3.603 9.20036C3.603 10.9955 5.30712 12.5343 7.74157 13.1434C6.47566 13.7845 5.35581 14.4898 4.33333 15.2912C3.89513 15.6438 3.45693 16.0285 3.1161 16.4132C1.11985 18.4969 0.0486891 20.9012 0 23.3375V23.3695C0 26.0303 1.26592 28.5628 3.50562 30.7106C4.82023 31.9608 6.42697 33.0508 8.37453 33.9163V36H30.6255V33.9163C32.573 33.0508 34.1798 31.9288 35.4944 30.7106C37.7341 28.5948 39 26.0303 39 23.3695V23.3375C38.9513 20.9012 37.8801 18.4969 35.8839 16.4452ZM6.2809 9.23241C6.2809 7.85396 7.98502 6.76402 10.03 6.76402C12.0749 6.76402 13.779 7.88602 13.779 9.23241C13.779 10.5788 12.0749 11.7008 10.03 11.7008C7.98502 11.7008 6.2809 10.5788 6.2809 9.23241ZM9.00749 23.3375C9.00749 19.5227 13.6816 16.4452 19.4757 16.4452C25.2697 16.4452 29.9438 19.5227 29.9438 23.3375C29.9438 27.1523 25.2697 30.2297 19.4757 30.2297C13.7303 30.2297 9.00749 27.1523 9.00749 23.3375ZM25.7079 16.4452C23.9064 15.74 21.764 15.3232 19.4757 15.3232C17.1873 15.3232 15.0449 15.74 13.2434 16.4452H6.96255C9.29963 14.65 12.4157 13.3678 15.8727 12.8549C16.603 12.7587 17.0899 12.3419 17.0899 11.8611V4.74443C17.0899 4.71238 17.0899 4.71238 17.0899 4.68032H17.5768H21.3745H21.8614C21.8614 4.71238 21.8614 4.71238 21.8614 4.74443V11.8931C21.8614 12.374 22.3483 12.7907 23.0787 12.8869C26.5356 13.3678 29.7004 14.65 31.9888 16.4452H25.7079Z" fill="#DFB004"/>
<path d="M28.9213 23.2734C28.9213 19.8433 24.6853 17.0543 19.4756 17.0543C14.2659 17.0543 10.0299 19.8433 10.0299 23.2734C10.0299 26.7035 14.2659 29.4924 19.4756 29.4924C24.6853 29.4924 28.9213 26.7035 28.9213 23.2734ZM23.2247 26.7355L20.8876 26.5752C20.7415 26.5752 20.5954 26.6073 20.4981 26.6714C20.4007 26.7355 20.352 26.8317 20.352 26.9279V27.7934C20.352 28.114 19.9625 28.3384 19.5243 28.3384C19.0861 28.3384 18.6966 28.0819 18.6966 27.7934V26.9279C18.6966 26.8317 18.6479 26.7355 18.5505 26.6714C18.4531 26.6073 18.3558 26.5752 18.2097 26.5752H18.161L15.8726 26.7355H15.8239C15.6778 26.7355 15.5318 26.7035 15.4344 26.6073C15.337 26.5111 15.2883 26.3829 15.337 26.2867L15.4831 25.9662C15.5318 25.8379 15.4831 25.7097 15.337 25.6135L12.2209 23.9786C12.0749 23.8825 11.9775 23.7863 12.0262 23.6581C12.0749 23.5619 12.1722 23.4657 12.3183 23.4016C12.5131 23.3375 12.6591 23.1772 12.6104 23.0169L12.2209 21.8949C12.1722 21.7988 12.2209 21.6705 12.367 21.5744C12.4644 21.5102 12.6591 21.4461 12.8539 21.4782L14.0711 21.6385C14.3146 21.6705 14.6067 21.5744 14.6554 21.4141V21.382C14.7041 21.2538 14.8501 21.1897 14.9962 21.1576C15.191 21.1256 15.337 21.1576 15.4831 21.2217L15.97 21.5102C16.116 21.6064 16.3595 21.6385 16.5543 21.5423C16.749 21.4782 16.8464 21.35 16.7977 21.1897L16.5056 19.9074C16.4569 19.7792 16.5543 19.6509 16.7003 19.5868C16.8464 19.5227 17.0411 19.4907 17.2359 19.5548L17.6254 19.683C17.8689 19.7471 18.161 19.683 18.2584 19.5227L19.1348 18.3687C19.2322 18.2404 19.3782 18.1763 19.573 18.1763C19.7677 18.1763 19.9625 18.2404 20.0112 18.3687L20.8876 19.4907C20.985 19.6509 21.2771 19.7151 21.5205 19.6509L21.9101 19.5227C22.0561 19.4907 22.2996 19.4907 22.4456 19.5548C22.5917 19.6189 22.6891 19.7471 22.6404 19.8753L22.3483 21.1576C22.2996 21.2858 22.3969 21.4461 22.5917 21.5102C22.7865 21.5744 23.0299 21.5423 23.176 21.4782L23.6629 21.1897C23.7602 21.1256 23.8576 21.0935 24.0037 21.0935C24.0524 21.0935 24.1011 21.0935 24.1498 21.0935C24.3445 21.1256 24.4419 21.2217 24.4906 21.3179V21.35C24.5393 21.5102 24.8314 21.6064 25.0749 21.5744L26.3408 21.4141C26.4868 21.382 26.6816 21.4461 26.8277 21.5102C26.9737 21.6064 27.0224 21.7026 26.9737 21.8308L26.5842 22.9528C26.5355 23.1131 26.6329 23.2734 26.8763 23.3375C27.0224 23.3695 27.1198 23.4657 27.1685 23.5939C27.2172 23.7222 27.1198 23.8504 26.9737 23.9145L23.8576 25.5494C23.7116 25.6456 23.6142 25.7738 23.7116 25.9021L23.8576 26.1906V26.2226C23.8576 26.2547 23.9063 26.3188 23.9063 26.3508C23.7602 26.6073 23.5168 26.7355 23.2247 26.7355Z" fill="#DFB004"/>
</svg>
