<svg width="39" height="36" viewBox="0 0 39 36" fill="none" xmlns="http://www.w3.org/2000/svg">
<path d="M27.0975 5.91594C26.7114 5.8683 26.3622 6.1819 26.3194 6.6178C26.2766 7.05369 26.5555 7.44624 26.9424 7.49447C33.0127 8.25152 37.5903 14.0197 37.5903 20.9118C37.5903 28.2106 32.5223 34.1362 26.0526 34.4016C26.022 34.4029 25.9918 34.4063 25.9623 34.4119H13.0377C13.0083 34.4064 12.978 34.403 12.9473 34.4016C6.47766 34.1362 1.40964 28.2106 1.40964 20.9118C1.40964 13.4679 6.78471 7.41183 13.3915 7.41183C13.7585 7.41183 14.1276 7.43114 14.4927 7.46847C14.5319 7.55189 14.5587 7.62398 14.5656 7.67651C14.5341 7.91698 14.1004 8.55276 13.8401 8.9345C13.1746 9.91039 12.4202 11.0165 13.0553 11.9553C13.6399 12.8195 14.7201 12.411 15.7645 12.016C16.1874 11.8561 16.8837 11.5921 17.1307 11.6295C17.2849 11.8169 17.5194 12.5021 17.662 12.9192C18.0524 14.06 18.495 15.3531 19.4999 15.3531C20.5049 15.3531 20.9473 14.0601 21.3378 12.9192C21.4805 12.5021 21.715 11.8169 21.8692 11.6295C22.1164 11.5922 22.8124 11.8561 23.2353 12.016C24.2799 12.4108 25.3599 12.8194 25.9447 11.9552C26.5799 11.0163 25.8254 9.9103 25.1599 8.9345C24.8994 8.55293 24.4658 7.91707 24.4343 7.67659C24.4657 7.43612 24.8994 6.80034 25.1597 6.4186C25.8252 5.44271 26.5796 4.33663 25.9446 3.39781C25.3601 2.53357 24.2799 2.94218 23.2354 3.33713C22.8124 3.49711 22.1164 3.7611 21.8692 3.72359C21.7149 3.53616 21.4805 2.85103 21.3378 2.43393C20.9474 1.29301 20.5049 0 19.5 0C18.4951 0 18.0526 1.29301 17.6621 2.43393C17.5194 2.85103 17.2849 3.53616 17.1307 3.72359C16.8838 3.7611 16.1875 3.49702 15.7646 3.33713C14.7199 2.94218 13.6399 2.53357 13.0552 3.3979C12.5461 4.15039 12.9299 5.01025 13.445 5.82454C13.4273 5.82445 13.4094 5.82368 13.3915 5.82368C6.00745 5.82359 0 12.5922 0 20.9118C0 24.8447 1.3356 28.5676 3.76061 31.3948C6.15179 34.1825 9.34964 35.8088 12.7769 35.9833C12.8236 35.9942 12.8721 36 12.9216 36H26.0783C26.1279 36 26.1763 35.9942 26.223 35.9833C29.6504 35.8088 32.8481 34.1825 35.2393 31.3948C37.6644 28.5676 39 24.8447 39 20.9118C39 13.209 33.883 6.76215 27.0975 5.91594ZM15.3161 4.84281C16.213 5.18207 17.0602 5.50227 17.7172 5.1752C18.3412 4.86452 18.636 4.00295 18.9774 3.00534C19.1054 2.63116 19.324 1.99212 19.5 1.69612C19.6758 1.9922 19.8945 2.63116 20.0226 3.00534C20.364 4.00295 20.659 4.86452 21.2828 5.1752C21.9399 5.50227 22.787 5.18198 23.684 4.84272C23.9539 4.74068 24.3452 4.59272 24.6356 4.51848C24.4794 4.80968 24.2202 5.1897 24.0422 5.45078C23.5186 6.21846 23.0241 6.94349 23.0241 7.67651C23.0241 8.4096 23.5187 9.13463 24.0422 9.90223C24.2203 10.1633 24.4794 10.5433 24.6356 10.8344C24.3451 10.7602 23.9538 10.6123 23.6838 10.5102C22.7869 10.1709 21.9398 9.85074 21.2827 10.1778C20.6587 10.4885 20.3639 11.3501 20.0225 12.3477C19.8946 12.7219 19.6759 13.3609 19.4999 13.6569C19.3241 13.3608 19.1054 12.7219 18.9773 12.3477C18.6359 11.3501 18.341 10.4885 17.7171 10.1778C17.5233 10.0813 17.3131 10.0413 17.0899 10.0413C16.5561 10.0413 15.9485 10.271 15.316 10.5103C15.0459 10.6123 14.6547 10.7603 14.3643 10.8345C14.5205 10.5433 14.7797 10.1633 14.9577 9.90223C15.4815 9.13455 15.976 8.40952 15.976 7.67651C15.976 6.94341 15.4814 6.21838 14.9579 5.45078C14.7798 5.1897 14.5207 4.80968 14.3645 4.51857C14.6548 4.59281 15.0461 4.74077 15.3161 4.84281Z" fill="#DFB004"/>
</svg>
