<svg width="21" height="20" viewBox="0 0 21 20" fill="none" xmlns="http://www.w3.org/2000/svg">
<path d="M20.8638 0.366958C20.8335 0.250025 20.7376 0.158707 20.6148 0.129895C20.063 0.000435168 19.4839 -0.0324374 18.8933 0.032487C17.5007 0.185403 16.1322 0.842638 15.0398 1.88303C13.9474 2.92342 13.2573 4.22678 13.0967 5.55305C13.0363 6.05171 13.0569 6.54177 13.1571 7.01283C13.1523 7.01758 13.1471 7.02173 13.1426 7.02683C11.6452 8.72108 10.6314 10.5613 9.95576 12.3828C9.37574 10.2389 8.51061 8.26674 7.37479 6.50812C5.68395 3.8902 3.37703 1.71668 0.517987 0.0477786C0.368493 -0.0394784 0.173913 -0.00423005 0.0684597 0.129118C-0.0369941 0.262465 -0.0188061 0.450284 0.110505 0.562984C3.58313 3.58998 6.02952 7.10799 7.38182 11.0193C7.95132 12.6665 8.70846 15.356 8.70846 19.676C8.70846 19.855 8.86076 20 9.04863 20H10.5C10.6879 20 10.8402 19.855 10.8402 19.676C10.8402 19.4412 10.8389 19.2007 10.8375 18.9552C10.8198 15.7283 10.7973 11.6428 13.7379 7.48817C14.0148 7.53551 14.2975 7.55935 14.5844 7.55935C14.7777 7.55931 14.973 7.54856 15.1694 7.52696C16.562 7.37404 17.9305 6.71681 19.0229 5.67642C20.1153 4.63603 20.8054 3.33262 20.966 2.0064C21.0342 1.44411 20.9997 0.892487 20.8638 0.366958ZM8.02806 10.8166C7.04909 7.98501 5.51359 5.35551 3.44647 2.96372C4.7477 4.11322 5.86764 5.41132 6.79527 6.84761C8.07732 8.83266 9.00522 11.1013 9.55426 13.5907C9.37474 14.1991 9.23014 14.8012 9.11462 15.3908C8.91836 13.9817 8.58649 12.4319 8.02806 10.8166ZM10.1572 18.9586C10.158 19.0913 10.1586 19.2225 10.1591 19.3521H9.39107C9.42105 17.2238 9.75528 14.5626 10.8682 11.9131C10.1326 14.501 10.1461 16.9508 10.1572 18.9586ZM20.2902 1.93218C19.9938 4.37996 17.6616 6.60104 15.0915 6.88333C14.7825 6.91732 14.4778 6.91979 14.1803 6.89218C15.2822 5.47335 16.7452 4.05089 18.6876 2.65607C18.8376 2.54838 18.8675 2.34523 18.7544 2.20234C18.6413 2.05953 18.428 2.03102 18.278 2.13871C16.4451 3.45491 14.9426 4.85218 13.7514 6.35184C13.7363 6.11417 13.7429 5.87214 13.7726 5.62722C14.069 3.17944 16.4011 0.958362 18.9713 0.676072C19.4081 0.628124 19.8366 0.641731 20.2478 0.716504C20.3262 1.10817 20.3406 1.51616 20.2902 1.93218Z" fill="black"/>
</svg>
