<svg width="39" height="36" viewBox="0 0 39 36" fill="none" xmlns="http://www.w3.org/2000/svg">
<path d="M1.21796 15.8123C0.869621 15.8123 0.5816 15.4913 0.568514 15.0825C0.560181 14.8105 0.552246 14.5367 0.552246 14.2648C0.552246 8.85825 5.49669 7.84543 9.46992 7.03143C12.9524 6.31735 15.067 5.75498 15.067 3.96328C15.067 3.54518 14.8722 3.22885 14.6464 2.86346C14.4088 2.47869 14.1402 2.043 14.1402 1.46766C14.1402 1.03479 14.3005 0.653709 14.5913 0.395623C14.8297 0.185671 15.553 -0.461854 18.7431 0.561173C29.1608 3.90592 33.6057 8.0036 33.6057 14.2648C33.6057 14.6838 33.3145 15.0233 32.9559 15.0233C32.5968 15.0233 32.3056 14.6838 32.3056 14.2648C32.3056 8.81293 28.1464 5.15186 18.3979 2.02265C16.5956 1.44546 15.747 1.47417 15.4665 1.5602C15.5161 1.67765 15.624 1.85248 15.7018 1.97825C15.9826 2.43336 16.3671 3.05679 16.3671 3.96328C16.3671 7.15724 13.1262 7.82138 9.69488 8.52434C5.10312 9.46507 1.85233 10.427 1.85233 14.2648C1.85233 14.5191 1.85986 14.7735 1.86779 15.027C1.8809 15.4451 1.60079 15.7966 1.24215 15.8114C1.23383 15.8123 1.2259 15.8123 1.21796 15.8123Z" fill="#FFC800"/>
<path d="M17.276 35.4571C7.7501 35.4571 0 26.4227 0 15.3193C0 14.9003 0.291207 14.5608 0.650235 14.5608H33.9021C34.2611 14.5608 34.5523 14.9003 34.5523 15.3193C34.5523 26.4227 26.8022 35.4571 17.276 35.4571ZM1.31317 16.0769C1.65555 25.9954 8.68479 33.9419 17.276 33.9419C25.8675 33.9419 32.8968 25.9954 33.2392 16.0769H1.31317Z" fill="#FFC800"/>
<path d="M34.5908 25.1019C33.8885 25.1019 33.1256 24.9557 32.3179 24.656L31.9958 24.5358C31.6538 24.4082 31.4657 23.9808 31.5753 23.583C31.6843 23.1853 32.0497 22.9661 32.3921 23.0928L32.713 23.2122C33.6184 23.5479 36.6442 24.3924 37.5321 21.1541C37.8404 20.0256 37.7233 19.0155 37.1842 18.1544C36.6641 17.3228 35.7782 16.6568 34.6221 16.2295L34.2968 16.1046C33.9556 15.9742 33.7699 15.5459 33.8818 15.1491C33.9937 14.7504 34.3607 14.5331 34.7019 14.6644L35.0212 14.7865C36.4371 15.311 37.55 16.1666 38.2347 17.2618C39.0203 18.517 39.2051 20.0219 38.7703 21.6138C38.151 23.8772 36.6252 25.1019 34.5908 25.1019Z" fill="#FFC800"/>
<path d="M33.553 36H2.84698C2.48833 36 2.19714 35.6606 2.19714 35.2425C2.19714 34.8234 2.48833 34.484 2.84698 34.484H33.553C33.9121 34.484 34.2033 34.8234 34.2033 35.2425C34.2033 35.6606 33.9121 36 33.553 36Z" fill="#FFC800"/>
</svg>
